<svg xmlns="http://www.w3.org/2000/svg" xmlns:cc="http://web.resource.org/cc/" xmlns:svg="http://www.w3.org/2000/svg" xmlns:xlink="http://www.w3.org/1999/xlink" id="svg2" width="256" height="256" version="1.0"><defs id="defs4"><linearGradient id="linearGradient6434"><stop id="stop6436" offset="0" stop-color="#fff" stop-opacity="1"/><stop id="stop6438" offset="1" stop-color="#fff" stop-opacity="0"/></linearGradient><linearGradient id="linearGradient6423"><stop id="stop6425" offset="0" stop-color="#fff" stop-opacity="1"/><stop id="stop6427" offset="1" stop-color="#fff" stop-opacity="0"/></linearGradient><linearGradient id="linearGradient6307"><stop id="stop6309" offset="0" stop-color="#fff" stop-opacity="1"/><stop id="stop6311" offset="1" stop-color="#fff" stop-opacity="0"/></linearGradient><linearGradient id="linearGradient5831"><stop id="stop5833" offset="0" stop-color="#000" stop-opacity="1"/><stop id="stop5835" offset="1" stop-color="#000" stop-opacity="0"/></linearGradient><linearGradient id="linearGradient5715"><stop id="stop5717" offset="0" stop-color="#fff" stop-opacity="1"/><stop id="stop5719" offset="1" stop-color="#fff" stop-opacity="0"/></linearGradient><linearGradient id="linearGradient5707"><stop id="stop5709" offset="0" stop-color="#a0cef7" stop-opacity="1"/><stop id="stop5711" offset="1" stop-color="#4d8ed4" stop-opacity="1"/></linearGradient><linearGradient id="linearGradient5683"><stop id="stop5685" offset="0" stop-color="#fff" stop-opacity="1"/><stop id="stop5687" offset="1" stop-color="#fff" stop-opacity="0"/></linearGradient><linearGradient id="linearGradient5673"><stop id="stop5675" offset="0" stop-color="#fff" stop-opacity="1"/><stop id="stop5677" offset="1" stop-color="#fff" stop-opacity="0"/></linearGradient><linearGradient id="linearGradient5663"><stop id="stop5665" offset="0" stop-color="#008ad0" stop-opacity="1"/><stop id="stop5667" offset="1" stop-color="#006da5" stop-opacity="1"/></linearGradient><linearGradient id="linearGradient5599"><stop id="stop5601" offset="0" stop-color="#000" stop-opacity="1"/><stop id="stop5603" offset="1" stop-color="#000" stop-opacity="0"/></linearGradient><linearGradient id="linearGradient5565"><stop id="stop5567" offset="0" stop-color="#78d5fa" stop-opacity="1"/><stop id="stop5569" offset="1" stop-color="#067cc1" stop-opacity="1"/></linearGradient><linearGradient id="linearGradient5571" x1="108.827" x2="108.827" y1="46.107" y2="219.766" gradientTransform="matrix(0.9374502,0,0,0.9374502,9.1002045,8.6374604)" gradientUnits="userSpaceOnUse" xlink:href="#linearGradient5565"/><linearGradient id="linearGradient5669" x1="193.025" x2="252.604" y1="-46.5" y2="175.855" gradientTransform="matrix(0.9374502,0,0,0.9374502,9.1002045,8.6374604)" gradientUnits="userSpaceOnUse" xlink:href="#linearGradient5663"/><linearGradient id="linearGradient5679" x1="182.5" x2="183.167" y1="28.5" y2="236.969" gradientTransform="matrix(0.9374502,0,0,0.9374502,9.1002045,8.6374604)" gradientUnits="userSpaceOnUse" xlink:href="#linearGradient5673"/><linearGradient id="linearGradient5705" x1="181.702" x2="186.35" y1="129.75" y2="129.75" gradientTransform="matrix(0.9540689,0,0,0.9540689,6.9937797,7.4186295)" gradientUnits="userSpaceOnUse" xlink:href="#linearGradient5707"/><linearGradient id="linearGradient5721" x1="65.75" x2="64" y1="145" y2="198.25" gradientTransform="translate(1,0)" gradientUnits="userSpaceOnUse" xlink:href="#linearGradient5715"/><filter id="filter5751"><feGaussianBlur id="feGaussianBlur5753" stdDeviation=".57"/></filter><filter id="filter5825"><feGaussianBlur id="feGaussianBlur5827" stdDeviation="2.931"/></filter><linearGradient id="linearGradient5837" x1="56" x2="48.75" y1="66.5" y2="155" gradientUnits="userSpaceOnUse" xlink:href="#linearGradient5831"/><filter id="filter5899"><feGaussianBlur id="feGaussianBlur5901" stdDeviation=".596"/></filter><linearGradient id="linearGradient5951" x1="41" x2="-27" y1="200" y2="117" gradientTransform="translate(0,-2)" gradientUnits="userSpaceOnUse" xlink:href="#linearGradient5599"/><filter id="filter6281" width="1.063" height="1.289" x="-.031" y="-.144"><feGaussianBlur id="feGaussianBlur6283" stdDeviation="3.973"/></filter><filter id="filter6295" width="1.106" height="1.442" x="-.053" y="-.221"><feGaussianBlur id="feGaussianBlur6297" stdDeviation="7.843"/></filter><linearGradient id="linearGradient6299" x1="41" x2="-27" y1="200" y2="117" gradientTransform="translate(0,-2)" gradientUnits="userSpaceOnUse" xlink:href="#linearGradient5599"/><linearGradient id="linearGradient6301" x1="141.068" x2="147.078" y1="68.617" y2="239.737" gradientTransform="matrix(0.9374502,0,0,0.9374502,9.1002045,8.6374604)" gradientUnits="userSpaceOnUse" xlink:href="#linearGradient5683"/><linearGradient id="linearGradient6313" x1="202.5" x2="197" y1="212.5" y2="190.5" gradientUnits="userSpaceOnUse" xlink:href="#linearGradient6307"/><filter id="filter6367" width="1.301" height="1.294" x="-.15" y="-.147"><feGaussianBlur id="feGaussianBlur6369" stdDeviation="3.306"/></filter><linearGradient id="linearGradient6373" x1="195.75" x2="197" y1="216" y2="190.5" gradientTransform="translate(1,0)" gradientUnits="userSpaceOnUse" xlink:href="#linearGradient6307"/><filter id="filter6401"><feGaussianBlur id="feGaussianBlur6403" stdDeviation="3.327"/></filter><radialGradient id="radialGradient6429" cx="182" cy="37" r="14" fx="182" fy="37" gradientTransform="matrix(1.0714286,0,0,1.0714286,-13,-2.6428571)" gradientUnits="userSpaceOnUse" xlink:href="#linearGradient6423"/><linearGradient id="linearGradient6440" x1="114.695" x2="119.149" y1="152.772" y2="210.772" gradientTransform="translate(1,0)" gradientUnits="userSpaceOnUse" xlink:href="#linearGradient6434"/><filter id="filter5657"><feGaussianBlur id="feGaussianBlur5659" stdDeviation="1.741"/></filter><linearGradient id="linearGradient5661" x1="41" x2="-27" y1="200" y2="117" gradientTransform="translate(0,-2)" gradientUnits="userSpaceOnUse" xlink:href="#linearGradient5599"/><filter id="filter5695"><feGaussianBlur id="feGaussianBlur5697" stdDeviation=".89"/></filter><linearGradient id="linearGradient4660" x1="65.75" x2="64" y1="145" y2="198.25" gradientUnits="userSpaceOnUse" xlink:href="#linearGradient5715"/><linearGradient id="linearGradient4662" x1="195.75" x2="197" y1="216" y2="190.5" gradientTransform="translate(1,0)" gradientUnits="userSpaceOnUse" xlink:href="#linearGradient6307"/></defs><metadata id="metadata7"/><g id="layer1"><path id="path5635" fill="url(#linearGradient5661)" fill-opacity="1" fill-rule="evenodd" stroke="none" stroke-linecap="butt" stroke-linejoin="miter" stroke-opacity="1" stroke-width="1" d="M 3.8337389e-16,212 L 187,239 L 251.73311,207.26689 L 62,186 L 3.8337389e-16,212 z" filter="url(#filter5657)" opacity=".543" transform="matrix(0.8619785,0,0,0.8619785,21.599567,24.675196)"/><path id="path6285" fill="url(#linearGradient5951)" fill-opacity="1" fill-rule="evenodd" stroke="none" stroke-linecap="butt" stroke-linejoin="miter" stroke-opacity="1" stroke-width="1" d="M -18,212 L 193,250 L 260.99915,204.13345 L 64,179 L -18,212 z" filter="url(#filter6295)" opacity=".24" transform="matrix(0.905192,0,0,0.9374502,17.519558,8.6374604)"/><path id="path5921" fill="url(#linearGradient6299)" fill-opacity="1" fill-rule="evenodd" stroke="none" stroke-linecap="butt" stroke-linejoin="miter" stroke-opacity="1" stroke-width="1" d="M 3.8337389e-16,212 L 187,239 L 251.73311,207.26689 L 62,186 L 3.8337389e-16,212 z" filter="url(#filter6281)" opacity=".269" transform="matrix(0.9374502,0,0,0.9374502,9.1002045,8.6374604)"/><path id="path5703" fill="url(#linearGradient5705)" fill-opacity="1" fill-rule="evenodd" stroke="none" stroke-dasharray="none" stroke-linecap="butt" stroke-linejoin="miter" stroke-miterlimit="4" stroke-opacity="1" stroke-width="3" d="M 183.97355,33.17849 L 232.15404,57.030212 L 232.15404,205.86496 L 183.97355,229.23965 L 24.627435,206.342 L 26.058539,55.59911 L 183.97355,33.17849 z"/><path id="path4594" fill="url(#linearGradient6440)" fill-opacity="1" fill-rule="evenodd" stroke="none" stroke-dasharray="none" stroke-linecap="butt" stroke-linejoin="miter" stroke-miterlimit="4" stroke-opacity="1" stroke-width="3" d="M 181.28188,34.948615 L 226.14866,58.654942 L 226.14866,201.34242 L 181.28188,220.59462 L 27.695363,197.79655 L 29.057742,57.292562 L 181.28188,34.948615 z" filter="url(#filter6401)" opacity=".829"/><path id="path5755" fill="#000" fill-opacity="1" fill-rule="evenodd" stroke="none" stroke-linecap="butt" stroke-linejoin="miter" stroke-opacity="1" stroke-width="1" d="M 29,61 L 29,201 L 101,212 L 69,139 L 41,180 L 41,70 L 130,133 L 82,134 L 138,218 L 186,224 L 186,39 L 29,61 z" filter="url(#filter5825)" opacity=".509" transform="matrix(0.9374502,0,0,0.9374502,9.1002045,8.6374604)"/><path id="path4590" fill="url(#linearGradient5571)" fill-opacity="1" fill-rule="evenodd" stroke="none" stroke-linecap="butt" stroke-linejoin="miter" stroke-opacity="1" stroke-width="1" d="M 30.661558,60.197219 L 30.661558,198.93984 L 101.90777,209.25179 L 71.909365,136.13068 L 45.660761,174.56614 L 45.660761,71.446621 L 129.09382,130.50598 L 84.096217,131.44343 L 136.59343,214.8765 L 181.59103,220.5012 L 181.59103,39.573316 L 30.661558,60.197219 z"/><path id="path4592" fill="url(#linearGradient5669)" fill-opacity="1" fill-rule="evenodd" stroke="none" stroke-linecap="butt" stroke-linejoin="miter" stroke-opacity="1" stroke-width="1" d="M 181.59103,39.573316 L 181.59103,220.96992 L 226.11992,200.34602 L 226.11992,61.134669 L 181.59103,39.573316 z"/><path id="path5671" fill="url(#linearGradient5679)" fill-opacity="1" fill-rule="evenodd" stroke="none" stroke-linecap="butt" stroke-linejoin="miter" stroke-opacity="1" stroke-width="1" d="M 183.55976,33.85479 L 170.27908,36.22969 C 170.27908,36.22969 179.12885,36.100393 179.24741,38.635865 L 181.59103,228.09502 L 182.82667,219.99768 L 183.99721,48.401503 C 183.99721,45.957596 191.34063,38.135865 191.34063,38.135865 L 183.55976,33.85479 z" opacity=".846"/><path id="path5681" fill="url(#linearGradient6301)" fill-opacity="1" fill-rule="evenodd" stroke="none" stroke-linecap="butt" stroke-linejoin="miter" stroke-opacity="1" stroke-width="1" d="M 30.198549,60.802943 L 32.016582,148.8795 C 32.016582,148.8795 45.647495,146.78239 45.647495,146.78239 C 45.647495,146.78239 46.536427,72.091544 46.536427,72.091544 C 46.536427,72.091544 126.18247,129.86456 126.18247,129.86456 C 126.18247,129.86456 86.096028,132.71792 86.096028,132.71792 C 86.096028,132.71792 90.935899,142.05444 90.935899,142.05444 C 90.935899,142.05444 180.12256,132.34659 180.12256,132.34659 L 179.57342,40.802891 L 30.198549,60.802943 z" opacity=".149"/><path id="path5713" fill="url(#linearGradient4660)" fill-opacity="1" fill-rule="evenodd" stroke="none" stroke-linecap="butt" stroke-linejoin="miter" stroke-opacity="1" stroke-width="1" d="M 66.75,137.25 L 97.75,213.25 L 66,140 L 40.75,176.5 L 66.75,137.25 z" filter="url(#filter5751)" opacity=".337" transform="matrix(0.9374502,0,0,0.9374502,9.1002045,8.6374604)"/><path id="path5829" fill="url(#linearGradient5837)" fill-opacity="1" fill-rule="evenodd" stroke="none" stroke-linecap="butt" stroke-linejoin="miter" stroke-opacity="1" stroke-width="1" d="M 37.75,176.5 L 39.125,67 L 129.25,130 L 36.875,62.875 L 37.75,176.5 z" filter="url(#filter5899)" opacity=".063" transform="matrix(0.9374502,0,0,0.9374502,9.1002045,8.6374604)"/><path marker-end="none" style="marker:none" id="path6303" fill="url(#linearGradient5721)" fill-opacity="1" fill-rule="evenodd" stroke="none" stroke-dasharray="none" stroke-dashoffset="0" stroke-linecap="butt" stroke-linejoin="miter" stroke-miterlimit="4" stroke-opacity="1" stroke-width=".937" marker-mid="none" marker-start="none" d="M 85.75,132 L 131,131.25 L 88.25,133.5 L 97.25,150 L 85.75,132 z" color="#000" display="inline" enable-background="accumulate" filter="url(#filter5751)" opacity=".337" overflow="visible" visibility="visible"/><path id="path6305" fill="url(#linearGradient6313)" fill-opacity="1" fill-rule="evenodd" stroke="none" stroke-linecap="butt" stroke-linejoin="miter" stroke-opacity="1" stroke-width="1" d="M 183.0625,219.5 L 182.5625,188 L 216.25,177.25 L 216.25,203.75 L 183.0625,219.5 z" filter="url(#filter5695)" opacity=".246" transform="matrix(1.4545455,0,0,1.4545455,-84.045455,-89.545455)"/><path marker-end="none" style="marker:none" id="path6371" fill="url(#linearGradient4662)" fill-opacity="1" fill-rule="evenodd" stroke="none" stroke-dasharray="none" stroke-dashoffset="0" stroke-linecap="butt" stroke-linejoin="miter" stroke-miterlimit="4" stroke-opacity="1" stroke-width="1" marker-mid="none" marker-start="none" d="M 181,198 C 181,199.5 181.25,220.5 181.25,220.5 L 137.5,215 L 122,191.25 L 181,198 z" color="#000" display="inline" enable-background="accumulate" filter="url(#filter6367)" opacity=".309" overflow="visible" visibility="visible"/><path marker-end="none" style="marker:none" id="path6375" fill="url(#linearGradient6373)" fill-opacity="1" fill-rule="evenodd" stroke="none" stroke-dasharray="none" stroke-dashoffset="0" stroke-linecap="butt" stroke-linejoin="miter" stroke-miterlimit="4" stroke-opacity="1" stroke-width="1" marker-mid="none" marker-start="none" d="M 101.75,209.5 L 30.25,199 L 30.75,178.75 L 92,186.25 L 101.75,209.5 z" color="#000" display="inline" enable-background="accumulate" filter="url(#filter6367)" opacity=".309" overflow="visible" visibility="visible"/><path id="path6405" fill="url(#radialGradient6429)" fill-opacity="1" fill-rule="evenodd" stroke="none" stroke-dasharray="none" stroke-dashoffset="0" stroke-linecap="butt" stroke-linejoin="miter" stroke-miterlimit="4" stroke-opacity="1" stroke-width="1" marker-end="none" marker-mid="none" marker-start="none" d="M 196 37 A 14 14 0 1 1 168,37 A 14 14 0 1 1 196 37 z" color="#000" display="inline" enable-background="accumulate" opacity="1" overflow="visible" visibility="visible" style="marker:none"/><path marker-end="none" style="marker:none" id="path6431" fill="#fff" fill-opacity="1" fill-rule="evenodd" stroke="none" stroke-dasharray="none" stroke-dashoffset="0" stroke-linecap="butt" stroke-linejoin="miter" stroke-miterlimit="4" stroke-opacity="1" stroke-width="1" marker-mid="none" marker-start="none" d="M 196 37 A 14 14 0 1 1 168,37 A 14 14 0 1 1 196 37 z" color="#000" display="inline" enable-background="accumulate" opacity="1" overflow="visible" transform="matrix(0.4642857,0,0,0.4642857,97.5,19.821429)" visibility="visible"/></g></svg>